<svg id="Agrupar_2" data-name="Agrupar 2" xmlns="http://www.w3.org/2000/svg" width="1080" height="1620" viewBox="0 0 1080 1620">
  <defs>
    <style>
      .cls-1, .cls-12, .cls-7 {
        fill: #fff;
      }

      .cls-1 {
        stroke: #fff;
        stroke-width: 14px;
      }

      .cls-1, .cls-10, .cls-2, .cls-3, .cls-4, .cls-5, .cls-6, .cls-7, .cls-8, .cls-9 {
        fill-rule: evenodd;
      }

      .cls-2 {
        fill: #d2fefc;
      }

      .cls-3 {
        fill: #00c4b7;
      }

      .cls-4 {
        fill: #315351;
      }

      .cls-5 {
        fill: #9bdfda;
      }

      .cls-6 {
        fill: none;
        stroke: #befaf7;
        stroke-width: 18px;
      }

      .cls-8 {
        fill: #06c2b5;
      }

      .cls-9 {
        fill: #6dfff9;
      }

      .cls-10, .cls-11 {
        fill: #404040;
      }
    </style>
  </defs>
  <g id="Agrupar_1" data-name="Agrupar 1">
    <path id="Mao_esq" data-name="Mao esq" class="cls-1" d="M272.5,1179.3c-11.748,12.15-12.5,32.86-12.195,41.34,0.354,9.66,2.917,27.84,14.228,38.58,10.226,9.71,22.779,8.29,30.488,5.51,10.892-3.93,19.3-13.72,24.39-24.8,5.934-12.94,11.684-37.53,2.032-55.12-4.143-7.55-17.649-16.81-40.65-13.78C282.139,1172.18,276.345,1175.33,272.5,1179.3Z"/>
    <path id="Bra_esq" data-name="Bra esq" class="cls-2" d="M257,1168.77l80.66-129.09,52.934-77.451a235.729,235.729,0,0,1,22.686-13.9c23.187-12.477,41.568-16.142,47.892-13.9,7.9,2.8,15,11.743,17.644,29.79,2.221,15.157-1.008,30.975-12.6,51.635a186.572,186.572,0,0,1-30.247,39.72l-55.455,107.24-32.768,53.62a93.306,93.306,0,0,1-40.33,0c-23.6-5.38-41.506-19.93-50.413-37.73"/>
    <path id="Mao_esq_copiar" data-name="Mao esq copiar" class="cls-1" d="M812.469,1179.27c11.747,12.15,12.5,32.86,12.194,41.34-0.354,9.67-2.917,27.84-14.226,38.58-10.225,9.71-22.776,8.29-30.484,5.51-10.891-3.93-19.3-13.71-24.387-24.8-5.933-12.93-11.683-37.53-2.032-55.12,4.143-7.55,17.647-16.81,40.645-13.77C802.833,1172.15,808.626,1175.3,812.469,1179.27Z"/>
    <path id="Bra_esq_copiar" data-name="Bra esq copiar" class="cls-2" d="M827.974,1168.74l-80.65-129.09L694.4,962.2a235.683,235.683,0,0,0-22.683-13.9c-23.184-12.477-41.563-16.141-47.886-13.9-7.9,2.8-15,11.743-17.642,29.79-2.221,15.157,1.008,30.975,12.6,51.634a186.584,186.584,0,0,0,30.243,39.72l55.447,107.24,32.764,53.62a93.283,93.283,0,0,0,40.325,0c23.594-5.37,41.5-19.93,50.407-37.73"/>
    <path id="Pé_esq" data-name="Pé esq" class="cls-3" d="M500.176,1469.71l-6.713,48.41a62.184,62.184,0,0,1-30.686,13.84c-12.017,1.67-25.8-.62-40.276-9.22a80.144,80.144,0,0,1-20.138-17.29l0.959-40.35Z"/>
    <path id="Perna_esq" data-name="Perna esq" class="cls-4" d="M367.841,1308.32q1.8,5.19,3.518,10.38c5,15.06,9.556,30.08,13.743,45.36,4.758,17.36,9.428,38.75,13.425,60.39a225.459,225.459,0,0,1,3.836,32.52q0.394,9.3,0,18.58l38.358,18.59,28.769-2.33,28.768-9.29L513.6,1366.39Z"/>
    <path id="Pé_dir" data-name="Pé dir" class="cls-3" d="M584.563,1469.75l6.713,48.77a61.916,61.916,0,0,0,30.686,13.94c12.017,1.69,25.8-.62,40.276-9.29a80.106,80.106,0,0,0,20.138-17.42l-0.959-40.65Z"/>
    <path id="Perna_dir" data-name="Perna dir" class="cls-4" d="M715.939,1308.32q-1.8,5.19-3.518,10.38c-5,15.06-9.555,30.08-13.743,45.36-4.757,17.36-9.428,38.75-13.425,60.39a225.459,225.459,0,0,0-3.836,32.52q-0.394,9.3,0,18.58l-38.358,18.59-28.768-2.33-28.769-9.29-15.343-116.13Z"/>
    <path id="Quadril" class="cls-4" d="M358.7,1236.28c-4.544,25.93-2.588,52.37,6.139,76.48a133.168,133.168,0,0,0,28.648,46.34c34.929,36.33,77.945,31.34,153.471,32.45,74.9,1.1,116.58,7.27,145.287-27.81,5.857-7.16,16.2-27.6,22.509-50.98a238.829,238.829,0,0,0,6.139-90.38l-325.36,4.63Z"/>
    <path id="Torso" class="cls-2" d="M373.6,1268.83c16.526,25.18,44.054,29.64,76.716,32.52,29.784,2.63,58.954,4.16,86.305,4.65,37.233,0.65,63.048,3.11,99.73-4.65,39.569-8.36,60.964-21.66,72.88-41.81,23.089-39.03,6.646-77.37-5.753-148.65-13.674-78.61-1.792-129.633-39.113-161.529-19.543-16.7-65.4-23.165-129.11-22.275-58.875.823-101.8,7.592-120.206,23.389-39.959,34.3-23.816,89.5-37.613,174.345C366.211,1193.82,350.291,1233.33,373.6,1268.83Z"/>
    <path id="Tie" class="cls-5" d="M534.49,1002.36L511.9,1077.52l29.545,90.18,26.07-87.18-22.594-75.15,8.69-36.071H522.324"/>
    <path id="Forma_1" data-name="Forma 1" class="cls-6" d="M605.514,1068.5h55.615"/>
  </g>
  <g id="Rabbit">
    <path id="Forma_2" data-name="Forma 2" class="cls-7" d="M602.028,461.4c4.708-46.583,12.055-98.3,19.755-122.5C634.3,299.549,653.19,276.2,669.2,238.135,677.243,219,693.369,181.581,720.56,151.2a273.137,273.137,0,0,1,19.755-19.758c17.273-15.7,37.195-29.08,47.413-33.588A139.515,139.515,0,0,1,845.018,86c36,0.287,62.542,10.826,81,27.661,16.7,15.237,27.19,35.438,31.609,55.322,8.43,37.934-5.916,73.66-39.511,126.449-22.731,35.719-65.146,88.01-73.094,98.789-8.824,11.968-48.7,66.461-94.825,96.814a142.328,142.328,0,0,1-53.34,21.733c-21.512,4.007-38.3,1.838-49.388-1.976-16.6-5.712-43.214-21.1-45.437-43.467A33.836,33.836,0,0,1,602.028,461.4Z"/>
    <path id="Forma_2_copiar" data-name="Forma 2 copiar" class="cls-8" d="M652.445,411.535c1.167-11.458,8.2-46.789,20.3-76.171,14.018-34.018,29.9-58.046,45.3-91.206,5.556-11.967,20.114-41.781,39.936-63.382,4.225-4.6,8.988-9.253,14.1-13.8,12.18-10.85,25.79-19.715,32.553-22.441a72.891,72.891,0,0,1,36.68-4.908c22.335,2.9,37.845,13.013,47.752,27.4,8.965,13.018,13.613,29.412,14.52,45.109,1.73,29.949-10.482,56.5-36.226,94.806-17,25.3-45.912,59.629-54.53,70.931-15.083,19.781-27.2,36.615-43.7,54.588-12.354,13.462-26.243,26.5-45.381,38.35a181.69,181.69,0,0,1-19.664,10.582c-6.608-13.434-14.793-22.907-24.733-28.089-3.922-2.044-25.1-4.421-28.616-14.108-1.378-3.793-.035-9.49.8-17.191C651.933,418.413,652.1,414.882,652.445,411.535Z"/>
    <path id="Forma_2_copiar_2" data-name="Forma 2 copiar 2" class="cls-7" d="M477.447,461.236c-4.7-46.563-12.038-98.252-19.728-122.446-12.5-39.334-31.363-62.671-47.347-100.721-8.036-19.128-24.14-56.529-51.293-86.9a273.118,273.118,0,0,0-19.728-19.75C322.1,115.734,302.207,102.356,292,97.85A139.207,139.207,0,0,0,234.792,86c-35.953.287-62.456,10.821-80.884,27.649-16.679,15.23-27.153,35.422-31.565,55.3-8.419,37.918,5.907,73.628,39.456,126.395,22.7,35.7,65.056,87.971,72.993,98.746,8.812,11.962,48.636,66.432,94.7,96.772a142.056,142.056,0,0,0,53.265,21.724c21.483,4.005,38.251,1.837,49.32-1.975,16.581-5.71,43.155-21.088,45.375-43.448A33.811,33.811,0,0,0,477.447,461.236Z"/>
    <path id="Forma_2_copiar_3" data-name="Forma 2 copiar 3" class="cls-8" d="M427.1,411.4c-1.166-11.453-8.188-46.769-20.278-76.138-14-34-29.861-58.021-45.236-91.167-5.548-11.962-20.086-41.763-39.881-63.355-4.219-4.6-8.975-9.249-14.077-13.8-12.162-10.845-25.754-19.707-32.508-22.431a72.728,72.728,0,0,0-36.629-4.906c-22.3,2.9-37.793,13.008-47.686,27.385-8.953,13.013-13.594,29.4-14.5,45.09-1.728,29.935,10.467,56.472,36.176,94.765,16.979,25.288,45.848,59.6,54.454,70.9C282,397.513,294.1,414.339,310.573,432.3c12.336,13.457,26.206,26.487,45.318,38.334a181.463,181.463,0,0,0,19.637,10.578c6.6-13.429,14.772-22.9,24.7-28.078,3.917-2.043,25.063-4.418,28.577-14.1,1.375-3.792.034-9.486-.8-17.184C427.611,418.269,427.44,414.74,427.1,411.4Z"/>
    <path id="Forma_3" data-name="Forma 3" class="cls-7" d="M606.194,412.991a361.957,361.957,0,0,0-63.245-1.975,405.535,405.535,0,0,0-69.174,1.975c-81.742,9.422-141.9,42.373-164.041,63.225-19.226,18.105-40.162,47.476-58.3,86.935-7.105,15.453-15.3,38.561-21.74,59.273-1.908,6.137-3.676,12.409-4.941,17.782-1.1,4.677-1.911,9.142-2.965,13.83-0.989,4.405-2.685,10.638-3.952,15.807-2.931,11.957-4.959,22.8-4.941,31.612a129.881,129.881,0,0,0,.988,13.83c0.653,5.938,1.335,12.08,1.976,17.782l-5.929,11.855a128.354,128.354,0,0,0-15.811,44.455,131.9,131.9,0,0,0,4.941,60.261c3.5,11.115,9.132,23.231,17.787,36.552a174.256,174.256,0,0,0,27.67,32.6,193.883,193.883,0,0,0,62.256,38.527c19.6,7.605,37.108,10.623,53.363,12.843,16.943,2.314,38.652,5.858,49.41,6.915,48.068,4.725,87.159,13.649,134.4,12.843,30.6-.523,71.3-6.152,109.69-9.879,10.517-1.021,21.034-2.006,31.623-2.964l44.468-6.915a338.575,338.575,0,0,0,55.34-15.806c5.7-2.17,11.219-4.441,16.8-6.916a174.164,174.164,0,0,0,24.705-15.806,176.342,176.342,0,0,0,21.74-19.758c28.28-30.3,41.47-59.6,44.469-86.934a137.137,137.137,0,0,0-7.9-62.237l-4.941-11.855-9.882-16.794a140.514,140.514,0,0,0-2.965-64.212c-1.667-9.329-3.619-18.436-5.929-27.661-4.9-19.589-12.364-41.388-21.74-64.213-7.864-19.143-16.423-37.231-24.705-51.37-4.373-7.465-8.935-14.633-13.835-21.734l-15.811-19.758a51.145,51.145,0,0,0-5.93-5.927c-1.075-.911-2.171-1.766-3.315-2.585-1.172-.838-2.364-1.618-3.6-2.354C762.541,468.485,674.363,421.165,606.194,412.991Z"/>
    <path id="Bochecha_esq" data-name="Bochecha esq" class="cls-9" d="M292.853,715.473c22.915,0,41.491,12.4,41.491,27.7s-18.576,27.7-41.491,27.7-41.492-12.4-41.492-27.7S269.938,715.473,292.853,715.473Z"/>
    <path id="Bochecha_dir" data-name="Bochecha dir" class="cls-9" d="M791.674,715.473c22.915,0,41.491,12.4,41.491,27.7s-18.576,27.7-41.491,27.7-41.492-12.4-41.492-27.7S768.758,715.473,791.674,715.473Z"/>
    <path id="Boca" class="cls-10" d="M537.815,757.68s11.982-13.578,9.878,0,0,41.532,0,41.532c8.9,21.427,29.291,35.279,51.364,35.6,19.564,0.283,37.834-10.043,48.4-26.7h2.963l1.976,1.978v2.966a62.775,62.775,0,0,1-108.656-7.91h-1.975c-11.124,22.517-33.479,36.627-57.291,36.587-19.992-.034-38.45-9.972-50.376-25.71l-1.976-4.944,0.988-2.967,1.975-.989,1.976,0.989c10.455,16.019,28.048,26.441,47.413,26.7,34.161,0.456,50.742-27.522,53.3-35.462C542.921,780.834,526.99,702.643,537.815,757.68Z"/>
    <path id="Boca_copiar" data-name="Boca copiar" class="cls-10" d="M546.705,757.68s-11.983-13.578-9.878,0,0,41.532,0,41.532c-8.9,21.427-29.292,35.279-51.364,35.6-19.564.283-37.835-10.043-48.4-26.7H434.1l-1.976,1.978v2.966a62.774,62.774,0,0,0,108.655-7.91h1.976c11.123,22.517,33.479,36.627,57.291,36.587,19.991-.034,38.449-9.972,50.376-25.71l1.976-4.944-0.988-2.967-1.976-.989-1.975.989C637,824.13,619.41,834.552,600.045,834.81c-34.162.456-50.742-27.522-53.3-35.462C541.6,780.834,557.53,702.643,546.705,757.68Z"/>
    <path id="Nariz" class="cls-8" d="M541.8,701.45c23.5,0,53.916,17.535,53.455,33.225s-41.934,39.685-52.533,40.608-52.995-24.919-53.456-38.763S518.3,701.45,541.8,701.45Z"/>
    <circle id="Olho_esq" data-name="Olho esq" class="cls-11" cx="398.985" cy="644.204" r="44.203"/>
    <circle id="Olho_dir" data-name="Olho dir" class="cls-11" cx="680.797" cy="644.204" r="44.203"/>
    <path id="brilho_dir" data-name="brilho dir" class="cls-7" d="M695.539,610.825a18.544,18.544,0,1,1-18.42,18.543A18.482,18.482,0,0,1,695.539,610.825Z"/>
    <circle id="brilho_esq" data-name="brilho esq" class="cls-12" cx="410.953" cy="629.359" r="18.422"/>
  </g>
</svg>
