<svg xmlns="http://www.w3.org/2000/svg" width="1080" height="1080" viewBox="0 0 1080 1080">
  <path id="Forma_6" data-name="Forma 6" fill="#06c2b5" class="cls-1" d="M173.1,851.449l21.226,31.325,18.193,6.063,24.259-4.042,27.29-12.126-2.022,40.419,11.119,45.472,18.193,20.21,18.194,6.063,31.333-11.116,36.387-42.44L392.43,943.4l3.032,42.44,12.129,29.307,21.226,19.2,21.226,6.06,27.29-9.1,23.247-19.19,25.269-56.591L549.1,933.3l18.193,54.566,21.226,34.356,27.291,15.16,31.333-1.01,18.194-15.16,14.15-20.21,7.075-58.608,11.119-24.251,15.161,46.482,19.2,11.115L756.3,981.8l21.225,1.011,21.226-15.158,11.119-78.817,9.1-22.231,10.108,15.157,17.183,7.074,16.172,2.021,18.193-3.032L892.753,875.7,906.9,857.512,873.549,827.2l-120.28-23.241S501.086,773.136,491.484,769.6s-230.452-32.336-230.452-32.336l-69.742,38.4Z"/>
  <path id="Forma_5_copiar_5" data-name="Forma 5 copiar 5" fill="#06c2b5" class="cls-1" d="M909.181,767.724c8.494,18.819,11.784,39.412,8.724,59.694-1.971,13.066-10.433,52.065-39.566,63.736-11.185,4.481-31.634,4.9-58.512-10.444-23.959-13.677-41.426-36.684-51.389-63.95l0.187-5.651,5.3,1.591c8.959,25.877,25.061,47.851,47.474,60.991,24.344,14.273,43.081,14.186,53.168,10.265,27.895-10.844,35.23-49.17,36.8-61a99.934,99.934,0,0,0-6.379-49.715q0.093-2.826.187-5.651Z"/>
  <path id="Forma_5_copiar_6" data-name="Forma 5 copiar 6" fill="#06c2b5" class="cls-1" d="M813.159,859.678c8.494,18.819,11.784,39.412,8.724,59.694-1.971,13.066-10.433,52.065-39.566,63.736-11.185,4.481-31.634,4.9-58.512-10.444-23.959-13.677-41.426-36.684-51.389-63.95l0.187-5.651,5.3,1.591c8.959,25.877,25.061,47.851,47.475,60.991,24.343,14.272,43.081,14.186,53.167,10.265,27.9-10.844,35.23-49.17,36.8-61a99.934,99.934,0,0,0-6.38-49.715q0.094-2.826.187-5.651Z"/>
  <path id="Forma_5_copiar_7" data-name="Forma 5 copiar 7" fill="#06c2b5" class="cls-1" d="M264.725,859.678C256.23,878.5,252.94,899.09,256,919.372c1.972,13.066,10.433,52.065,39.566,63.736,11.185,4.481,31.635,4.9,58.512-10.444,23.959-13.677,41.426-36.684,51.389-63.95l-0.187-5.651-5.3,1.591c-8.959,25.877-25.061,47.851-47.474,60.991-24.344,14.272-43.081,14.186-53.167,10.265-27.9-10.844-35.231-49.17-36.8-61A99.934,99.934,0,0,1,268.92,865.2q-0.093-2.826-.187-5.651Z"/>
  <path id="Forma_5_copiar_8" data-name="Forma 5 copiar 8" fill="#06c2b5" class="cls-1" d="M170.819,765.7c-8.494,18.819-11.784,39.412-8.724,59.694,1.971,13.066,10.433,52.065,39.566,63.736,11.185,4.481,31.634,4.9,58.512-10.444,23.959-13.677,41.426-36.684,51.389-63.95l-0.187-5.651-5.3,1.591c-8.959,25.877-25.061,47.851-47.475,60.991-24.343,14.273-43.081,14.186-53.167,10.265-27.9-10.844-35.23-49.17-36.8-61a99.934,99.934,0,0,1,6.38-49.715q-0.093-2.826-.187-5.651Z"/>
  <path id="Forma_5_copiar_9" data-name="Forma 5 copiar 9" fill="#06c2b5" class="cls-1" d="M385.437,928.494c-4.292,20.2-3.121,41.017,4.188,60.183,4.708,12.343,21.281,48.653,52.231,53.853,11.883,2,31.953-1.95,54.947-22.66,20.5-18.46,32.664-44.658,36.592-73.419l-1.386-5.482-4.838,2.683c-3.243,27.19-14.3,52.087-33.4,69.7-20.746,19.12-39.073,23.03-49.762,21.34-29.566-4.65-44.894-40.54-48.947-51.765a99.938,99.938,0,0,1-4.354-49.934l-1.386-5.481Z"/>
  <path id="Forma_5_copiar_10" data-name="Forma 5 copiar 10" fill="#06c2b5" class="cls-1" d="M694.181,928.208c4.3,20.151,3.125,40.927-4.192,60.051-4.713,12.321-21.3,48.541-52.286,53.731-11.9,2-31.986-1.94-55-22.6-20.519-18.43-32.7-44.567-36.631-73.265l1.387-5.47,4.843,2.677c3.246,27.131,14.311,51.973,33.433,69.548,20.768,19.08,39.113,22.98,49.814,21.3,29.6-4.65,44.941-40.46,49-51.66A99.4,99.4,0,0,0,688.9,932.7q0.695-2.735,1.388-5.469Z"/>
  <path id="Forma_2" data-name="Forma 2" fill="#06c2b5" class="cls-1" d="M540.068,211.14a342.814,342.814,0,0,0-131.121,18.173c-47.322,16.478-100.634,47.922-150.79,109.031C235.677,365.733,195.7,444.4,177.3,532.179c-12.5,59.622-15.649,120.334-10.927,149.414,3.167,19.5,7.378,32.794,6.556,52.5-0.966,23.193-13.934,51.485-8.741,84.8,3.823,24.525,13.307,48.728,32.78,56.535,13.928,5.583,36.282,3.978,50.264,2.019,2.855-.4,9.273-1.378,13.112,2.019,7.019,6.211-2.767,26.865-2.185,38.363,1.2,23.789,20.167,49.632,45.892,56.535,26.446,7.1,51.672-7.448,61.19-14.134,4.832-3.393,18.816-17.736,21.854-16.153,3.39,1.768-4.293,16.911-2.185,30.287,3.462,21.979,22.6,36.277,34.965,42.4,15.584,7.72,32.993,8.96,48.078,6.06,19.911-3.82,40.579-16.13,50.264-34.323,3.593-6.751,5.142-15.744,10.926-24.229a65.8,65.8,0,0,1,13.113-14.134Q541.161,580.638,540.068,211.14Z"/>
  <path id="Forma_2_copiar" data-name="Forma 2 copiar" fill="#06c2b5" class="cls-1" d="M540.067,210.636A342.525,342.525,0,0,1,671.142,228.81c47.3,16.48,100.6,47.927,150.735,109.044,22.472,27.393,62.439,106.065,80.83,193.857C915.2,591.34,918.351,652.06,913.63,681.143c-3.166,19.5-7.375,32.8-6.554,52.5,0.966,23.2,13.93,51.491,8.738,84.813-3.821,24.528-13.3,48.734-32.768,56.541-13.923,5.585-36.269,3.979-50.246,2.02-2.854-.4-9.269-1.379-13.107,2.019-7.016,6.212,2.766,26.868,2.184,38.368-1.2,23.791-20.16,49.637-45.876,56.541-26.436,7.1-51.653-7.449-61.168-14.135-4.83-3.394-18.809-17.739-21.845-16.155-3.389,1.768,4.291,16.912,2.184,30.29-3.461,21.982-22.592,36.283-34.953,42.4-15.579,7.72-32.98,8.96-48.061,6.06-19.9-3.82-40.563-16.13-50.245-34.327-3.592-6.752-5.14-15.746-10.923-24.233a65.824,65.824,0,0,0-13.107-14.135Z"/>
  <path id="Forma_1" data-name="Forma 1" fill="#fff" class="cls-2" d="M538.274,300.4a249.481,249.481,0,0,1,24.517-39.161c14.79-19.341,30.793-31.693,40.642-35.4,17.811-6.7,37.426-5.874,56.106.794l11.168,3.9a34.382,34.382,0,0,0,6.113-6.835,30.643,30.643,0,0,0,5.022-11.953A26.488,26.488,0,0,0,654.517,181.4l-15.034,1.353A37.969,37.969,0,0,0,653,167.331a36.444,36.444,0,0,0,3.47-20.109,33.768,33.768,0,0,0-31.324-30.048L612.488,121.9a78.572,78.572,0,0,0,13.581-27.24c5.883-21.769,4.137-36.766-3.9-46.029-6.488-7.479-22.187-14.4-49.5-10.5-44.6,6.36-73.661,42.793-85.712,62.141-19.038,30.568-24.817,66.4-21.015,98.926,1.416,12.123,4.83,25.912,10.639,41.275,11.168,29.539,28.579,56.721,51.181,80.8Q533.019,310.832,538.274,300.4Z"/>
  <path id="Forma_4" data-name="Forma 4" fill="#6dfff9" class="cls-3" d="M536.712,718.2h6.073V535.383h-5.061Z"/>
  <path id="Forma_3" data-name="Forma 3" fill="#6dfff9" class="cls-3" d="M536.712,718.2c-36.425-7.469-71.378-16.169-105.256-26.261-39.312-11.711-80.257-27.319-85.015-54.544a40.736,40.736,0,0,1,2.024-20.2c2.405-6.622,9.549-20.627,24.29-24.242,5.5-1.349,21.264,1.8,38.459,14.141a111.913,111.913,0,0,1,12.145,10.1l58.7-52.523a194.192,194.192,0,0,1,56.676-32.322Q537.724,625.278,536.712,718.2Z"/>
  <path id="Forma_3_copiar" data-name="Forma 3 copiar" fill="#6dfff9" class="cls-3" d="M541.767,718.2c36.329-7.469,71.191-16.169,104.98-26.261,39.208-11.711,80.046-27.319,84.792-54.544a40.837,40.837,0,0,0-2.019-20.2c-2.4-6.622-9.524-20.627-24.226-24.242-5.491-1.349-21.208,1.8-38.359,14.141a111.876,111.876,0,0,0-12.113,10.1l-58.546-52.523a193.548,193.548,0,0,0-56.528-32.322Z"/>
  <path id="Bochecha_esq" data-name="Bochecha esq" fill="#fff" class="cls-2" d="M255.237,546.562c23.461,0,42.479,12.669,42.479,28.3s-19.018,28.3-42.479,28.3-42.48-12.668-42.48-28.3S231.776,546.562,255.237,546.562Z"/>
  <path id="Bochecha_dir" data-name="Bochecha dir" fill="#fff" class="cls-2" d="M822.541,546.562c23.461,0,42.48,12.669,42.48,28.3s-19.019,28.3-42.48,28.3-42.479-12.668-42.479-28.3S799.08,546.562,822.541,546.562Z"/>
  <circle id="Olho_dir" data-name="Olho dir" fill="#404040" class="cls-4" cx="681.735" cy="476.813" r="45.265"/>
  <circle id="brilho_dir" data-name="brilho dir" fill="#fff" class="cls-5" cx="696.829" cy="461.656" r="18.859"/>
  <circle id="Olho_esq" data-name="Olho esq" fill="#404040" class="cls-4" cx="393.219" cy="476.813" r="45.25"/>
  <circle id="brilho_esq" data-name="brilho esq" fill="#fff" class="cls-5" cx="405.485" cy="461.656" r="18.859"/>
  <path id="Forma_5" data-name="Forma 5" fill="#30fff1" class="cls-6" d="M222.848,725.394a106.788,106.788,0,0,0-11.023,59.312c1.448,13.136,8.335,52.448,36.859,65.269,10.952,4.922,31.279,6.153,58.621-8.113,24.373-12.718,42.653-35.017,53.635-61.871l0.036-5.655-5.333,1.38c-9.929,25.5-26.811,46.826-49.625,59.068-24.778,13.3-43.416,12.466-53.3,8.147-27.326-11.946-33.118-50.54-34.215-62.425a100.344,100.344,0,0,1,8.3-49.432q0.018-2.827.035-5.655Z"/>
  <path id="Forma_5_copiar" data-name="Forma 5 copiar" fill="#30fff1" class="cls-6" d="M847.364,722.694c8.47,18.81,11.75,39.393,8.7,59.665-1.966,13.059-10.4,52.039-39.45,63.7-11.152,4.478-31.542,4.9-58.34-10.439-23.889-13.671-41.305-36.666-51.238-63.918l0.186-5.649,5.283,1.591c8.932,25.864,24.987,47.827,47.334,60.961,24.273,14.265,42.955,14.178,53.012,10.259,27.813-10.839,35.127-49.145,36.691-60.969a100.1,100.1,0,0,0-6.361-49.691q0.095-2.823.187-5.648Z"/>
  <path id="Forma_5_copiar_2" data-name="Forma 5 copiar 2" fill="#30fff1" class="cls-6" d="M721.652,828.014a96.511,96.511,0,0,1-.94,54.783c-3.688,11.416-17.008,45.109-44.862,51.251-10.694,2.359-29.1-.3-50.965-18.026-19.489-15.805-31.782-39.009-36.716-64.917l1-5.036,4.52,2.211c4.237,24.514,15.457,46.59,33.637,61.685,19.746,16.395,36.571,19.093,46.2,17.074,26.622-5.585,38.832-38.841,41.978-49.209a90.657,90.657,0,0,0,1.578-45.494q0.5-2.518,1-5.036Z"/>
  <path id="Forma_5_copiar_3" data-name="Forma 5 copiar 3" fill="#30fff1" class="cls-6" d="M353.962,826.484a96.415,96.415,0,0,0,1.367,54.821c3.787,11.4,17.4,45.008,45.382,50.928,10.741,2.274,29.18-.533,50.963-18.456,19.419-15.978,31.565-39.3,36.312-65.271l-1.04-5.032-4.515,2.249c-4.059,24.57-15.138,46.756-33.25,62.011-19.672,16.57-36.522,19.408-46.189,17.466-26.738-5.373-39.239-38.558-42.474-48.909a90.566,90.566,0,0,1-1.935-45.519q-0.521-2.516-1.04-5.032Z"/>
  <path id="Forma_5_copiar_4" data-name="Forma 5 copiar 4" fill="#30fff1" class="cls-6" d="M473.652,772.406a65.784,65.784,0,0,0,11.015,44.177c5.85,8.693,25.6,33.994,55.084,34.878,11.321,0.339,29.577-4.507,48.58-22.055,16.939-15.643,25.195-36.215,25.462-57.895l-1.941-3.928-4.2,2.452c0.187,20.451-7.183,39.953-22.922,54.829-17.093,16.158-33.727,20.808-43.9,20.586-28.13-.614-46.667-25.724-51.774-33.65a62.021,62.021,0,0,1-9.959-36.568l-1.941-3.928Z"/>
</svg>
