<svg id="Agrupar_1" data-name="Agrupar 1" xmlns="http://www.w3.org/2000/svg" width="1080" height="1620" viewBox="0 0 1080 1620">
  <defs>
    <style>
      .cls-1, .cls-12, .cls-8 {
        fill: #fff;
      }

      .cls-1 {
        stroke: #00c3b6;
        stroke-width: 14px;
      }

      .cls-1, .cls-10, .cls-2, .cls-3, .cls-4, .cls-5, .cls-6, .cls-7, .cls-8, .cls-9 {
        fill-rule: evenodd;
      }

      .cls-2 {
        fill: #d2fefc;
      }

      .cls-3 {
        fill: #00c4b7;
      }

      .cls-4 {
        fill: #315351;
      }

      .cls-5 {
        fill: #9bdfda;
      }

      .cls-6 {
        fill: none;
        stroke: #befaf7;
        stroke-width: 18px;
      }

      .cls-7 {
        fill: #06c2b5;
      }

      .cls-9 {
        fill: #6dfff9;
      }

      .cls-10, .cls-11 {
        fill: #404040;
      }
    </style>
  </defs>
  <path id="Mao_esq" data-name="Mao esq" class="cls-1" d="M270.507,1122.33c-11.749,12.14-12.5,32.86-12.195,41.33,0.353,9.67,2.917,27.84,14.228,38.58,10.226,9.71,22.78,8.29,30.489,5.51,10.893-3.92,19.3-13.71,24.391-24.8,5.934-12.93,11.685-37.53,2.032-55.11-4.143-7.55-17.65-16.82-40.652-13.78C280.145,1115.2,274.351,1118.35,270.507,1122.33Z"/>
  <path id="Bra_esq" data-name="Bra esq" class="cls-2" d="M255,1111.79L335.664,982.7,388.6,905.248a235.545,235.545,0,0,1,22.687-13.9c23.188-12.478,41.57-16.142,47.894-13.9,7.9,2.8,15,11.743,17.645,29.79,2.221,15.158-1.009,30.976-12.6,51.636a186.583,186.583,0,0,1-30.249,39.72l-55.456,107.24-32.769,53.63a93.47,93.47,0,0,1-40.332,0c-23.6-5.38-41.507-19.93-50.415-37.74"/>
  <path id="Mao_esq_copiar" data-name="Mao esq copiar" class="cls-1" d="M810.5,1122.3c11.747,12.14,12.5,32.86,12.194,41.33-0.353,9.67-2.917,27.84-14.226,38.58-10.225,9.71-22.778,8.29-30.485,5.51-10.892-3.92-19.3-13.71-24.388-24.8-5.934-12.93-11.684-37.52-2.033-55.11,4.143-7.55,17.648-16.82,40.647-13.78C800.858,1115.17,806.651,1118.32,810.5,1122.3Z"/>
  <path id="Bra_esq_copiar" data-name="Bra esq copiar" class="cls-2" d="M826,1111.76L745.347,982.673l-52.929-77.454a235.683,235.683,0,0,0-22.683-13.9c-23.185-12.478-41.565-16.142-47.888-13.9-7.9,2.8-15,11.743-17.643,29.79-2.221,15.158,1.008,30.976,12.6,51.636a186.619,186.619,0,0,0,30.245,39.72L702.5,1105.8l32.765,53.63a93.447,93.447,0,0,0,40.327,0c23.594-5.38,41.5-19.93,50.408-37.74"/>
  <path id="Pé_esq" data-name="Pé esq" class="cls-3" d="M498.19,1412.74l-6.713,48.42a62.263,62.263,0,0,1-30.687,13.83c-12.018,1.67-25.805-.62-40.278-9.22a79.941,79.941,0,0,1-20.138-17.29l0.959-40.35Z"/>
  <path id="Perna_esq" data-name="Perna esq" class="cls-4" d="M365.85,1251.35q1.8,5.19,3.518,10.38c5,15.06,9.556,30.08,13.744,45.36,4.758,17.36,9.428,38.75,13.426,60.39a225.6,225.6,0,0,1,3.836,32.52q0.394,9.3,0,18.58l38.359,18.59,28.77-2.33,28.769-9.29,15.344-116.14Z"/>
  <path id="Pé_dir" data-name="Pé dir" class="cls-3" d="M582.58,1412.78l6.713,48.78a61.905,61.905,0,0,0,30.688,13.93c12.017,1.69,25.8-.62,40.277-9.29a80.128,80.128,0,0,0,20.139-17.42l-0.959-40.65Z"/>
  <path id="Perna_dir" data-name="Perna dir" class="cls-4" d="M713.961,1251.35q-1.8,5.19-3.518,10.38c-5,15.06-9.556,30.08-13.743,45.36-4.758,17.36-9.428,38.75-13.426,60.39a225.459,225.459,0,0,0-3.836,32.52q-0.394,9.3,0,18.58l-38.359,18.59-28.77-2.33-28.769-9.29L568.2,1309.41Z"/>
  <path id="Quadril" class="cls-4" d="M356.709,1179.31c-4.544,25.93-2.589,52.37,6.139,76.47a133.12,133.12,0,0,0,28.649,46.35c34.931,36.33,77.948,31.34,153.477,32.44,74.906,1.1,116.585,7.28,145.292-27.8,5.858-7.16,16.2-27.61,22.51-50.99a238.781,238.781,0,0,0,6.139-90.38l-325.372,4.64Z"/>
  <path id="Torso" class="cls-2" d="M371.6,1211.86c16.527,25.18,44.056,29.63,76.719,32.52,29.785,2.63,58.957,4.16,86.308,4.64,37.235,0.66,63.051,3.11,99.735-4.64,39.57-8.37,60.965-21.67,72.882-41.81,23.09-39.04,6.646-77.37-5.754-148.66C687.82,975.3,699.7,924.277,662.38,892.38c-19.543-16.7-65.407-23.166-129.115-22.276-58.877.823-101.806,7.593-120.21,23.39-39.96,34.3-23.817,89.5-37.615,174.356C364.22,1136.85,348.3,1176.36,371.6,1211.86Z"/>
  <path id="Tie" class="cls-5" d="M532.505,945.385l-22.594,75.155,29.546,90.18,26.071-87.18-22.6-75.149,8.69-36.073H520.339"/>
  <path id="Forma_1" data-name="Forma 1" class="cls-6" d="M603.532,1011.52h55.617"/>
  <path id="Cabeça" class="cls-7" d="M187.308,589.979a173.946,173.946,0,0,1-39.895,42.535l-10.755,8.052a29.586,29.586,0,0,0-2.689,37.579l4.482,14.315a24.69,24.69,0,0,1,2.688,12.526,25.08,25.08,0,0,1-7.17,16.105l-6.274,8.948A16.529,16.529,0,0,0,131.28,754.2l37.794,36.038c12.488,10.211,24.466,20.278,36.468,30.661,15.409,13.332,29.378,25.592,44.944,37.088,12.185,9,24.967,17.84,35.851,24.158,36.866,21.4,75.676,33.62,117.413,41.157,36.895,6.662,80.6,7.767,127.272,8.947,35.5,0.9,68.384,1.631,97.695-1.79,41.95-4.9,78.833-14.085,112.035-26.841a436.428,436.428,0,0,0,94.11-50.1L886.9,809.4c7.324-12.467,16.22-22.4,26.871-29.7,6.535-4.484,21.437-13.4,29.537-21.92,1.273-1.34,2.619-2.863,3.9-4.461a70.683,70.683,0,0,0,5.061-7.171,21.435,21.435,0,0,0,3.585-14.315c-0.927-7.861-12.548-18.789-12.548-18.789a16.775,16.775,0,0,1-6.274-13.421,16.531,16.531,0,0,1,4.481-10.737l5.378-15.21a22.024,22.024,0,0,0-.9-27.736l-40.333-37.578a132.235,132.235,0,0,1-17.8-31.792c-3.385-11.749-6.242-23.476-8.637-35.452a441.1,441.1,0,0,1-8.514-80.385L875.2,303.257c-4.62-20.723-6.168-72.222-13.445-101.1-11.3-44.854-29.243-67.738-38.54-87.682a48.389,48.389,0,0,0-13.444-17.895c-23.264-19-60.415-10.9-80.666-1.789-35.121,15.8-50.865,47.314-62.739,70.683-14.212,27.966-32.891,62.919-50.192,94.84l-27.785-2.684-48.4-2.684-37.644,1.789-39.436,4.474-43.022-86.788C404.026,135.083,372.63,100.211,331.151,93c-18.135-3.153-41.257-2.4-60.051,8.947a74.12,74.12,0,0,0-17.925,15.21s-23.319,42.234-36.748,101.1c-7.392,32.4-5.433,71.841-9.859,107.366-3.325,26.685,1.792,136,1.792,136-2.947,26.1-6.967,60.8-8.576,77.574a185.65,185.65,0,0,1-3.839,23.954A171.817,171.817,0,0,1,187.308,589.979Z"/>
  <path id="Cara_copiar" data-name="Cara copiar" class="cls-8" d="M823.15,626.454a590.523,590.523,0,0,0-23.3-106.552c-10.371-32.343-24.672-65.188-54.662-94.017-23.789-22.868-46.661-30.8-60.038-31.339-18.475-.746-41.825,6.361-69.9,34.025a135.983,135.983,0,0,0-31.364,48.352q0.358-9.585.716-19.17a119.113,119.113,0,0,0-2.879-37.368,106.016,106.016,0,0,0-8.637-23.954,101.169,101.169,0,0,0-34-37.7l-11.1,12.789a113.156,113.156,0,0,0-12.475,22.038,115.887,115.887,0,0,0-5.759,17.247,286.731,286.731,0,0,0-5.757,29.7,318.858,318.858,0,0,1-7.922,40,29.41,29.41,0,0,1-8.393-3.587c-7.7-4.844-12.5-12.98-14.395-22.038a48.531,48.531,0,0,0-3.3-13.744c-3.976-9.872-10.253-16.11-17.822-22.413-12.407-10.331-26.561-18.986-32.26-20.594-7.127-2.012-20.57-3.168-35.843,0-17.363,3.6-34.477,11.931-50.182,25.071-20.361,17.036-30.968,36.106-39.428,54.619A455.8,455.8,0,0,0,261.3,582.58c-1.05,5.409-2.034,10.8-2.958,16.194-1.527,8.915,1.236,16.74-3.135,19.916-1.888,1.372-4.467,1.589-7.44.992l-6.718-4.791-18.233-11.5-17.274-2.875c-6.777,4.075-11.95,8.818-15.355,14.372a72.611,72.611,0,0,1-4.244,6.544,67.246,67.246,0,0,1-5.291,5.915c-1.833,1.859-3.659,3.522-5.473,5.069-6.241,5.319-15.967,13.336-24.1,20a15.237,15.237,0,0,0,0,19.7q2.279,7.317,4.558,14.633a43.7,43.7,0,0,1-.96,33.536l-10.767,12.718a13.791,13.791,0,0,0-.749,9.319,14.328,14.328,0,0,0,9.6,9.582c6.923,4.594,13.556,9.324,20.153,14.372,7.97,6.1,15.584,12.435,23.032,19.164,8.8,8.513,17.648,16.636,26.95,24.738,10.28,8.953,21.737,18.479,30.34,24.9,21.518,16.062,46.872,30.569,77.96,43.874,38.4,16.433,82.419,28.223,134.416,33.922,19.076,2.09,47.531,2.869,73.894,2.874,38.547,0.007,76.64-2.144,104.6-6.707,30.523-4.98,56.716-11.65,80.471-20.24a392.078,392.078,0,0,0,74.375-35.816A377.942,377.942,0,0,0,857.2,808.221l34.052-32.235a182.644,182.644,0,0,1,33.155-24.176l7.169-5.372a9.626,9.626,0,0,0,.9-14.326l-7.169-9.85a44.586,44.586,0,0,1-.9-44.77l2.689-7.163a12.829,12.829,0,0,0,2.688-8.059,13.31,13.31,0,0,0-6.273-10.744l-8.961-9.85A158.524,158.524,0,0,1,879.6,604.965l-7.169-17.908a12.7,12.7,0,0,0-2.688-7.163c-2.041-2.555-4.3-3.494-5.377-3.582-2.613-.215-5.427,1.4-7.169,4.477l-16.129,21.49Z"/>
  <path id="Cara_copiar_2" data-name="Cara copiar 2" class="cls-8" d="M254.318,626.625a589.8,589.8,0,0,1,23.3-106.489c10.372-32.324,24.675-65.149,54.67-93.961,23.792-22.855,46.668-30.781,60.047-31.321,18.478-.745,41.831,6.357,69.906,34a135.9,135.9,0,0,1,31.368,48.323l-0.717-19.158a119,119,0,0,1,2.88-37.346,105.972,105.972,0,0,1,8.638-23.94,101.145,101.145,0,0,1,34.01-37.679l11.1,12.782A113.1,113.1,0,0,1,562,393.866,115.761,115.761,0,0,1,567.76,411.1a286.789,286.789,0,0,1,5.759,29.686,318.175,318.175,0,0,0,7.922,39.974,29.43,29.43,0,0,0,8.394-3.586c7.7-4.841,12.507-12.972,14.4-22.025a48.486,48.486,0,0,1,3.3-13.736c3.977-9.866,10.254-16.1,17.825-22.4,12.409-10.325,26.565-18.975,32.264-20.582,7.129-2.011,20.574-3.167,35.849,0,17.366,3.6,34.483,11.924,50.189,25.056,20.365,17.026,30.973,36.084,39.434,54.587a455.226,455.226,0,0,1,33.161,104.7c1.05,5.406,2.034,10.79,2.959,16.184,1.527,8.911-1.237,16.731,3.135,19.9,1.888,1.37,4.468,1.588,7.441.991l6.719-4.788,18.236-11.491,17.277-2.873c6.778,4.073,11.951,8.813,15.357,14.364a72.42,72.42,0,0,0,4.244,6.54,66.962,66.962,0,0,0,5.292,5.911c1.833,1.859,3.659,3.52,5.474,5.066,6.242,5.317,15.969,13.328,24.1,19.991a15.221,15.221,0,0,1,0,19.687q-2.28,7.313-4.559,14.625a43.637,43.637,0,0,0,.96,33.515l10.769,12.711a13.776,13.776,0,0,1,.748,9.314,14.321,14.321,0,0,1-9.6,9.576c-6.924,4.591-13.558,9.319-20.156,14.364-7.971,6.1-15.587,12.427-23.035,19.152-8.8,8.508-17.651,16.627-26.955,24.723-10.281,8.948-21.74,18.468-30.344,24.886-21.521,16.053-46.879,30.552-77.972,43.849-38.4,16.423-82.431,28.206-134.436,33.9-19.079,2.09-47.539,2.868-73.9,2.873-38.553.007-76.652-2.143-104.62-6.7-30.528-4.977-56.725-11.643-80.483-20.228a392.373,392.373,0,0,1-74.387-35.794,377.985,377.985,0,0,1-58.255-44.744l-34.056-32.215a182.787,182.787,0,0,0-33.161-24.162l-7.17-5.369a9.617,9.617,0,0,1-.9-14.318l7.17-9.843a44.531,44.531,0,0,0,.9-44.744l-2.688-7.159a12.8,12.8,0,0,1-2.689-8.054,13.3,13.3,0,0,1,6.273-10.738l8.963-9.844a158.508,158.508,0,0,0,34.953-36.689l7.169-17.9a12.7,12.7,0,0,1,2.689-7.159c2.041-2.553,4.305-3.491,5.377-3.579,2.614-.215,5.429,1.4,7.17,4.474l16.132,21.477Z"/>
  <path id="orelha_dir" data-name="orelha dir" class="cls-7" d="M873.69,280.3c11.59,106.82,5.795-187.658-104.31-193.432S633.2,268.754,633.2,248.544,717.225,303.4,717.225,303.4L870.792,415.992"/>
  <path id="ouvido_dir" data-name="ouvido dir" class="cls-9" d="M821.418,290.731c7.17,66.21,3.585-116.313-64.533-119.892s-84.25,112.735-84.25,100.209,51.984,34,51.984,34l95.006,69.788"/>
  <path id="orelha_esq" data-name="orelha esq" class="cls-7" d="M203.591,280.3C192,387.122,197.8,92.645,307.9,86.87S444.083,268.754,444.083,248.544,360.056,303.4,360.056,303.4L206.489,415.992"/>
  <path id="ouvido_esq" data-name="ouvido esq" class="cls-9" d="M261.131,288.977c-7.176,66.182-3.588-116.266,64.58-119.844S410.024,281.822,410.024,269.3,358,303.286,358,303.286l-95.076,69.759"/>
  <path id="Bochecha_esq" data-name="Bochecha esq" class="cls-9" d="M298.885,650.408c22.275,0,40.333,12.018,40.333,26.842s-18.058,26.842-40.333,26.842-40.333-12.018-40.333-26.842S276.61,650.408,298.885,650.408Z"/>
  <path id="Bochecha_dir" data-name="Bochecha dir" class="cls-9" d="M783.774,650.408c22.275,0,40.332,12.018,40.332,26.842s-18.057,26.842-40.332,26.842-40.333-12.018-40.333-26.842S761.5,650.408,783.774,650.408Z"/>
  <path id="Boca" class="cls-10" d="M534.318,671.169s11.652-13.163,9.606,0,0,40.263,0,40.263c8.654,20.772,28.485,34.2,49.95,34.511,19.026,0.274,36.794-9.736,47.069-25.883h2.882l1.921,1.917v2.876a61.14,61.14,0,0,1-105.665-7.669H538.16c-10.817,21.829-32.558,35.509-55.714,35.47-19.442-.033-37.392-9.668-48.99-24.925l-1.921-4.793,0.96-2.876,1.922-.959,1.921,0.959c10.167,15.529,27.276,25.633,46.108,25.883,33.221,0.442,49.345-26.682,51.835-34.379C539.283,693.616,523.791,617.813,534.318,671.169Z"/>
  <path id="Boca_copiar" data-name="Boca copiar" class="cls-10" d="M542.963,671.169s-11.652-13.163-9.606,0,0,40.263,0,40.263c-8.654,20.772-28.485,34.2-49.95,34.511-19.026.274-36.794-9.736-47.069-25.883h-2.882l-1.921,1.917v2.876A61.14,61.14,0,0,0,537.2,717.184h1.921c10.817,21.829,32.558,35.509,55.714,35.47,19.441-.033,37.391-9.668,48.99-24.925l1.921-4.793-0.96-2.876-1.922-.959-1.921.959c-10.167,15.529-27.275,25.633-46.108,25.883-33.221.442-49.345-26.682-51.835-34.379C538,693.616,553.49,617.813,542.963,671.169Z"/>
  <path id="Nariz" class="cls-10" d="M538.192,616.656c22.856,0,52.433,17,51.985,32.21s-40.781,38.473-51.088,39.368-51.537-24.158-51.985-37.578S515.337,616.656,538.192,616.656Z"/>
  <circle id="Olho_esq" data-name="Olho esq" class="cls-11" cx="402.063" cy="564.125" r="42.969"/>
  <path id="Olho_dir" data-name="Olho dir" class="cls-10" d="M676,520.988a43.127,43.127,0,1,1-42.971,43.127A43.05,43.05,0,0,1,676,520.988Z"/>
  <circle id="brilho_dir" data-name="brilho dir" class="cls-12" cx="690.313" cy="549.75" r="17.907"/>
  <circle id="brilho_esq" data-name="brilho esq" class="cls-12" cx="413.688" cy="549.75" r="17.906"/>
</svg>
