<svg id="Agrupar_1" data-name="Agrupar 1" xmlns="http://www.w3.org/2000/svg" width="1080" height="1620" viewBox="0 0 1080 1620">
  <defs>
    <style>
      .cls-1, .cls-7, .cls-9 {
        fill: #06c2b5;
      }

      .cls-1 {
        stroke: #00c3b6;
        stroke-width: 9px;
      }

      .cls-1, .cls-10, .cls-11, .cls-12, .cls-2, .cls-3, .cls-4, .cls-5, .cls-6, .cls-9 {
        fill-rule: evenodd;
      }

      .cls-2 {
        fill: #d2fefc;
      }

      .cls-3 {
        fill: #00c4b7;
      }

      .cls-4 {
        fill: #315351;
      }

      .cls-5 {
        fill: #9bdfda;
      }

      .cls-6 {
        fill: none;
        stroke: #befaf7;
        stroke-width: 18px;
      }

      .cls-12, .cls-8 {
        fill: #6dfff9;
      }

      .cls-10, .cls-14 {
        fill: #fff;
      }

      .cls-11, .cls-13 {
        fill: #404040;
      }
    </style>
  </defs>
  <path id="Mao_esq" data-name="Mao esq" class="cls-1" d="M270.507,1122.33c-11.749,12.14-12.5,32.86-12.195,41.33,0.353,9.67,2.917,27.84,14.228,38.58,10.226,9.71,22.78,8.29,30.489,5.51,10.893-3.92,19.3-13.71,24.391-24.8,5.934-12.93,11.685-37.53,2.032-55.11-4.143-7.55-17.65-16.82-40.652-13.78C280.145,1115.2,274.351,1118.35,270.507,1122.33Z"/>
  <path id="Bra_esq" data-name="Bra esq" class="cls-2" d="M255,1111.79L335.664,982.7,388.6,905.248a235.545,235.545,0,0,1,22.687-13.9c23.188-12.478,41.57-16.142,47.894-13.9,7.9,2.8,15,11.743,17.645,29.79,2.221,15.158-1.009,30.976-12.6,51.636a186.583,186.583,0,0,1-30.249,39.72l-55.456,107.24-32.769,53.63a93.47,93.47,0,0,1-40.332,0c-23.6-5.38-41.507-19.93-50.415-37.74"/>
  <path id="Mao_esq_copiar" data-name="Mao esq copiar" class="cls-1" d="M810.5,1122.3c11.747,12.14,12.5,32.86,12.194,41.33-0.353,9.67-2.917,27.84-14.226,38.58-10.225,9.71-22.778,8.29-30.485,5.51-10.892-3.92-19.3-13.71-24.388-24.8-5.934-12.93-11.684-37.52-2.033-55.11,4.143-7.55,17.648-16.82,40.647-13.78C800.858,1115.17,806.651,1118.32,810.5,1122.3Z"/>
  <path id="Bra_esq_copiar" data-name="Bra esq copiar" class="cls-2" d="M826,1111.76L745.347,982.673l-52.929-77.454a235.683,235.683,0,0,0-22.683-13.9c-23.185-12.478-41.565-16.142-47.888-13.9-7.9,2.8-15,11.743-17.643,29.79-2.221,15.158,1.008,30.976,12.6,51.636a186.619,186.619,0,0,0,30.245,39.72L702.5,1105.8l32.765,53.63a93.447,93.447,0,0,0,40.327,0c23.594-5.38,41.5-19.93,50.408-37.74"/>
  <path id="Pé_esq" data-name="Pé esq" class="cls-3" d="M498.19,1412.74l-6.713,48.42a62.263,62.263,0,0,1-30.687,13.83c-12.018,1.67-25.805-.62-40.278-9.22a79.941,79.941,0,0,1-20.138-17.29l0.959-40.35Z"/>
  <path id="Perna_esq" data-name="Perna esq" class="cls-4" d="M365.85,1251.35q1.8,5.19,3.518,10.38c5,15.06,9.556,30.08,13.744,45.36,4.758,17.36,9.428,38.75,13.426,60.39a225.6,225.6,0,0,1,3.836,32.52q0.394,9.3,0,18.58l38.359,18.59,28.77-2.33,28.769-9.29,15.344-116.14Z"/>
  <path id="Pé_dir" data-name="Pé dir" class="cls-3" d="M582.58,1412.78l6.713,48.78a61.905,61.905,0,0,0,30.688,13.93c12.017,1.69,25.8-.62,40.277-9.29a80.128,80.128,0,0,0,20.139-17.42l-0.959-40.65Z"/>
  <path id="Perna_dir" data-name="Perna dir" class="cls-4" d="M713.961,1251.35q-1.8,5.19-3.518,10.38c-5,15.06-9.556,30.08-13.743,45.36-4.758,17.36-9.428,38.75-13.426,60.39a225.459,225.459,0,0,0-3.836,32.52q-0.394,9.3,0,18.58l-38.359,18.59-28.77-2.33-28.769-9.29L568.2,1309.41Z"/>
  <path id="Quadril" class="cls-4" d="M356.709,1179.31c-4.544,25.93-2.589,52.37,6.139,76.47a133.12,133.12,0,0,0,28.649,46.35c34.931,36.33,77.948,31.34,153.477,32.44,74.906,1.1,116.585,7.28,145.292-27.8,5.858-7.16,16.2-27.61,22.51-50.99a238.781,238.781,0,0,0,6.139-90.38l-325.372,4.64Z"/>
  <path id="Torso" class="cls-2" d="M371.6,1211.86c16.527,25.18,44.056,29.63,76.719,32.52,29.785,2.63,58.957,4.16,86.308,4.64,37.235,0.66,63.051,3.11,99.735-4.64,39.57-8.37,60.965-21.67,72.882-41.81,23.09-39.04,6.646-77.37-5.754-148.66C687.82,975.3,699.7,924.277,662.38,892.38c-19.543-16.7-65.407-23.166-129.115-22.276-58.877.823-101.806,7.593-120.21,23.39-39.96,34.3-23.817,89.5-37.615,174.356C364.22,1136.85,348.3,1176.36,371.6,1211.86Z"/>
  <path id="Tie" class="cls-5" d="M532.505,945.385l-22.594,75.155,29.546,90.18,26.071-87.18-22.6-75.149,8.69-36.073H520.339"/>
  <path id="Forma_1" data-name="Forma 1" class="cls-6" d="M603.532,1011.52h55.617"/>
  <circle id="Orelha_esq" data-name="Orelha esq" class="cls-7" cx="261.906" cy="220.938" r="122.906"/>
  <circle id="Ouvido_esq" data-name="Ouvido esq" class="cls-8" cx="261.422" cy="221.406" r="65.484"/>
  <circle id="Orelha_esq_copiar" data-name="Orelha esq copiar" class="cls-7" cx="781.063" cy="220.938" r="122.907"/>
  <circle id="Ouvido_esq_copiar" data-name="Ouvido esq copiar" class="cls-8" cx="781.531" cy="221.406" r="65.5"/>
  <path id="Forma_1-2" data-name="Forma 1" class="cls-9" d="M528.126,947.674c-85.2-3.311-161.228-28.464-222.087-68.354-81.172-53.2-120.335-109.282-140.465-157.593-17.916-43-32.633-130.379-5.694-239.238,10.736-43.383,25.57-80.085,43.658-112.024,47.047-83.074,109.733-138.754,178.428-167.086,27.506-11.345,85.916-24.012,148.058-24.684,72.988-.789,138.338,14.566,170.836,28.481C755.679,230.648,814.082,273.161,866,347.681,893.72,387.466,911.833,426.2,922.946,463.5c24.377,81.833,24.827,175.993-13.287,260.124C884.025,780.208,837.912,838.719,759.7,886.915a416.5,416.5,0,0,1-180.327,59.809A445.718,445.718,0,0,1,528.126,947.674Z"/>
  <path id="Forma_2_copiar" data-name="Forma 2 copiar" class="cls-10" d="M482.152,905.624c-48.926-9.255-86-30.406-99.183-42.166-20.994-18.731-36.758-44.221-47.357-87.482-12.887-52.6-3.345-88.323-4.2-141.674-0.663-41.545-4.209-73.582,20.983-98.788,11.794-11.8,36.43-23.219,74.679-28.733,70.953-10.228,112.927-16.645,136.006,5.4,17.7,16.908,10.807,33.98,25.782,55.7,13.785,19.993,47.942,33.794,51.251,58.819,1.936,14.637-5.519,26.281-9.491,33.2-12.263,21.373-18.843,48.119-20.88,78.741-2.044,30.723,7.566,64.782,9.491,85.381,3.349,35.835-1.249,62.935-8.313,71.387C597.481,911.5,553.239,919.072,482.152,905.624Z"/>
  <path id="Forma_2_copiar_2" data-name="Forma 2 copiar 2" class="cls-10" d="M596.074,905.322c48.88-9.264,85.92-30.432,99.089-42.2,20.974-18.747,36.723-44.258,47.312-87.556,12.874-52.645,3.342-88.4,4.191-141.8,0.662-41.581,4.2-73.645-20.963-98.873-11.783-11.811-36.395-23.238-74.608-28.757-70.885-10.237-112.82-16.66-135.877,5.4-17.684,16.923-10.8,34.01-25.757,55.748-13.772,20.009-47.9,33.822-51.2,58.868-1.934,14.651,5.514,26.3,9.482,33.232,12.251,21.391,18.825,48.16,20.86,78.808,2.042,30.749-7.559,64.838-9.482,85.455-3.346,35.866,1.248,62.988,8.306,71.447C480.855,911.2,525.055,918.781,596.074,905.322Z"/>
  <path id="Boca" class="cls-11" d="M537.091,584.512s7.795-8.977,6.426,0,0,27.457,0,27.457c5.79,14.166,19.057,23.324,33.418,23.535a36.757,36.757,0,0,0,31.489-17.651h1.928l1.286,1.307v1.962a40.526,40.526,0,0,1-70.691-5.23h-1.286c-7.237,14.886-21.781,24.215-37.273,24.188-13.007-.022-25.015-6.592-32.775-17l-1.285-3.269,0.643-1.961,1.285-.654,1.285,0.654c6.8,10.59,18.248,17.48,30.847,17.651,22.225,0.3,33.013-18.2,34.678-23.445C540.413,599.819,530.048,548.126,537.091,584.512Z"/>
  <path id="Boca_copiar" data-name="Boca copiar" class="cls-11" d="M542.875,584.71s-7.8-8.944-6.427,0,0,27.36,0,27.36c-5.79,14.115-19.057,23.24-33.417,23.45a36.786,36.786,0,0,1-31.49-17.588h-1.928l-1.285,1.3v1.954a40.594,40.594,0,0,0,70.691-5.211H540.3c7.237,14.833,21.781,24.129,37.273,24.1a41.284,41.284,0,0,0,32.775-16.937l1.286-3.257L611,617.932l-1.286-.651-1.285.651a37.574,37.574,0,0,1-30.847,17.588c-22.225.3-33.012-18.13-34.678-23.361C539.553,599.963,549.917,548.454,542.875,584.71Z"/>
  <path id="Nariz" class="cls-11" d="M538.588,522.36c22.581,0,51.8,16.851,51.361,31.928s-40.292,38.137-50.476,39.024-50.918-23.946-51.361-37.25S516.006,522.36,538.588,522.36Z"/>
  <path id="Bochecha_esq" data-name="Bochecha esq" class="cls-12" d="M261.685,564.2c22.03,0,39.888,11.907,39.888,26.6s-17.858,26.6-39.888,26.6-39.888-11.907-39.888-26.6S239.656,564.2,261.685,564.2Z"/>
  <path id="Bochecha_dir" data-name="Bochecha dir" class="cls-12" d="M820.952,564.2c22.03,0,39.888,11.907,39.888,26.6s-17.858,26.6-39.888,26.6-39.888-11.907-39.888-26.6S798.923,564.2,820.952,564.2Z"/>
  <circle id="Olho_esq" data-name="Olho esq" class="cls-13" cx="371.312" cy="421.735" r="42.5"/>
  <circle id="Olho_dir" data-name="Olho dir" class="cls-13" cx="682.813" cy="421.735" r="42.718"/>
  <circle id="brilho_dir" data-name="brilho dir" class="cls-14" cx="693.265" cy="407.485" r="17.796"/>
  <path id="brilho_esq" data-name="brilho esq" class="cls-10" d="M382.823,389.688a17.8,17.8,0,1,1-17.708,17.8A17.756,17.756,0,0,1,382.823,389.688Z"/>
</svg>
