<svg id="Agrupar_3" data-name="Agrupar 3" xmlns="http://www.w3.org/2000/svg" width="1080" height="1620" viewBox="0 0 1080 1620">
  <defs>
    <style>
      .cls-1, .cls-7 {
        fill: #6dfff9;
      }

      .cls-1 {
        stroke: #6dfff9;
        stroke-width: 14px;
      }

      .cls-1, .cls-10, .cls-2, .cls-3, .cls-4, .cls-5, .cls-6, .cls-7, .cls-8, .cls-9 {
        fill-rule: evenodd;
      }

      .cls-2 {
        fill: #d2fefc;
      }

      .cls-3 {
        fill: #00c4b7;
      }

      .cls-4 {
        fill: #315351;
      }

      .cls-5 {
        fill: #9bdfda;
      }

      .cls-6 {
        fill: none;
        stroke: #befaf7;
        stroke-width: 18px;
      }

      .cls-12, .cls-8 {
        fill: #fff;
      }

      .cls-10, .cls-11, .cls-9 {
        fill: #404040;
      }

      .cls-9 {
        stroke: #363636;
        stroke-width: 4px;
      }
    </style>
  </defs>
  <g id="Agrupar_2" data-name="Agrupar 2">
    <g id="Agrupar_1" data-name="Agrupar 1">
      <path id="Mao_esq" data-name="Mao esq" class="cls-1" d="M272.5,1142.3c-11.748,12.15-12.5,32.86-12.195,41.34,0.354,9.66,2.917,27.84,14.228,38.58,10.226,9.71,22.779,8.29,30.488,5.51,10.892-3.93,19.3-13.72,24.39-24.8,5.934-12.94,11.684-37.53,2.032-55.12-4.143-7.55-17.649-16.81-40.65-13.78C282.139,1135.18,276.345,1138.33,272.5,1142.3Z"/>
      <path id="Bra_esq" data-name="Bra esq" class="cls-2" d="M257,1131.77l80.66-129.09,52.934-77.451a235.729,235.729,0,0,1,22.686-13.9c23.187-12.477,41.568-16.142,47.892-13.9,7.9,2.8,15,11.743,17.644,29.79,2.221,15.157-1.008,30.975-12.6,51.635a186.647,186.647,0,0,1-30.247,39.72l-55.455,107.24-32.768,53.62a93.306,93.306,0,0,1-40.33,0c-23.6-5.38-41.506-19.93-50.413-37.73"/>
      <path id="Mao_esq_copiar" data-name="Mao esq copiar" class="cls-1" d="M812.469,1142.27c11.747,12.15,12.5,32.86,12.194,41.34-0.354,9.67-2.917,27.84-14.226,38.58-10.225,9.71-22.776,8.29-30.484,5.51-10.891-3.93-19.3-13.71-24.387-24.8-5.933-12.93-11.683-37.53-2.032-55.12,4.143-7.55,17.647-16.81,40.645-13.77C802.833,1135.15,808.626,1138.3,812.469,1142.27Z"/>
      <path id="Bra_esq_copiar" data-name="Bra esq copiar" class="cls-2" d="M827.974,1131.74l-80.65-129.09L694.4,925.2a235.683,235.683,0,0,0-22.683-13.9c-23.184-12.477-41.563-16.141-47.886-13.9-7.9,2.8-15,11.743-17.642,29.79-2.221,15.157,1.008,30.975,12.6,51.635a186.653,186.653,0,0,0,30.243,39.719l55.447,107.24,32.764,53.62a93.283,93.283,0,0,0,40.325,0c23.594-5.37,41.5-19.93,50.407-37.73"/>
      <path id="Pé_esq" data-name="Pé esq" class="cls-3" d="M500.176,1432.71l-6.713,48.41a62.184,62.184,0,0,1-30.686,13.84c-12.017,1.67-25.8-.62-40.276-9.22a80.144,80.144,0,0,1-20.138-17.29l0.959-40.35Z"/>
      <path id="Perna_esq" data-name="Perna esq" class="cls-4" d="M367.841,1271.32q1.8,5.19,3.518,10.38c5,15.06,9.556,30.08,13.743,45.36,4.758,17.36,9.428,38.75,13.425,60.39a225.459,225.459,0,0,1,3.836,32.52q0.394,9.3,0,18.58l38.358,18.59,28.769-2.33,28.768-9.29L513.6,1329.39Z"/>
      <path id="Pé_dir" data-name="Pé dir" class="cls-3" d="M584.563,1432.75l6.713,48.77a61.916,61.916,0,0,0,30.686,13.94c12.017,1.69,25.8-.62,40.276-9.29a80.106,80.106,0,0,0,20.138-17.42l-0.959-40.65Z"/>
      <path id="Perna_dir" data-name="Perna dir" class="cls-4" d="M715.939,1271.32q-1.8,5.19-3.518,10.38c-5,15.06-9.555,30.08-13.743,45.36-4.757,17.36-9.428,38.75-13.425,60.39a225.459,225.459,0,0,0-3.836,32.52q-0.394,9.3,0,18.58l-38.358,18.59-28.768-2.33-28.769-9.29-15.343-116.13Z"/>
      <path id="Quadril" class="cls-4" d="M358.7,1199.28c-4.544,25.93-2.588,52.37,6.139,76.48a133.168,133.168,0,0,0,28.648,46.34c34.929,36.33,77.945,31.34,153.471,32.45,74.9,1.1,116.58,7.27,145.287-27.81,5.857-7.16,16.2-27.6,22.509-50.98a238.829,238.829,0,0,0,6.139-90.38l-325.36,4.63Z"/>
      <path id="Torso" class="cls-2" d="M373.6,1231.83c16.526,25.18,44.054,29.64,76.716,32.52,29.784,2.63,58.954,4.16,86.305,4.65,37.233,0.65,63.048,3.11,99.73-4.65,39.569-8.36,60.964-21.66,72.88-41.81,23.089-39.03,6.646-77.37-5.753-148.65-13.674-78.613-1.792-129.633-39.113-161.529-19.543-16.7-65.4-23.165-129.11-22.275-58.875.823-101.8,7.592-120.206,23.389-39.959,34.3-23.816,89.5-37.613,174.345C366.211,1156.82,350.291,1196.33,373.6,1231.83Z"/>
      <path id="Tie" class="cls-5" d="M534.49,965.365L511.9,1040.52l29.545,90.18,26.07-87.18-22.594-75.149,8.69-36.072H522.324"/>
      <path id="Forma_1" data-name="Forma 1" class="cls-6" d="M605.514,1031.5h55.615"/>
    </g>
  </g>
  <g id="Agrupar_1-2" data-name="Agrupar 1">
    <path id="Forma_8" data-name="Forma 8" class="cls-3" d="M545.134,1000a221.381,221.381,0,0,1-57.274-8.037c-59.793-16.606-75.832-53.992-133.024-68.312-45.056-11.281-69.973,11.98-116.4-8.037-37.991-16.38-87.765-59.454-91.454-111.51-1.608-22.687,5.937-39.82-4.619-53.243-10.854-13.8-29.117-6.066-42.494-16.073C68.144,711.052,64.532,619.93,102.511,576c9.561-11.06,23.266-21,23.358-37,0.047-8.335-3.587-16.152-9.369-23.214A79.172,79.172,0,0,0,92.234,521,83.682,83.682,0,0,0,63.27,540c-8.367-62.222-.936-126.03,25.517-180.93,14.313-29.707,32.866-55.494,53.221-75.732a252.5,252.5,0,0,1,26.224-22.718c44.83-33.731,97.628-52.451,153.348-56.257l18.475-22.1c21.083-19.542,44.725-34.491,70.207-44.2,41.369-15.766,76.839-11.733,88.683-6.028,12.176,5.864,22.666,14.818,31.409,26.12l62.817,104.477Z"/>
    <path id="Forma_8_copiar" data-name="Forma 8 copiar" class="cls-3" d="M534.573,998a221.632,221.632,0,0,0,57.309-8.037c59.829-16.605,75.878-53.99,133.105-68.309,45.083-11.281,70.014,11.979,116.466-8.037,38.015-16.38,87.818-59.452,91.51-111.5,1.608-22.687-5.941-39.82,4.621-53.242,10.861-13.8,29.134-6.066,42.52-16.073,31.746-23.734,35.366-114.853-2.641-158.782-9.567-11.059-23.28-21-23.371-37-0.048-8.334,3.588-16.151,9.374-23.212a79.257,79.257,0,0,1,24.281,5.213,83.763,83.763,0,0,1,28.983,19c8.37-62.219.93-126.025-25.534-180.923-14.323-29.706-32.887-55.492-53.254-75.729A252.584,252.584,0,0,0,911.7,258.646c-44.857-33.729-97.687-52.449-153.44-56.255l-18.487-22.1c-21.095-19.541-44.752-34.49-70.25-44.2-41.394-15.765-76.884-11.732-88.736-6.028-12.183,5.864-22.679,14.817-31.427,26.119L486.508,260.656Z"/>
    <path id="Rpsto_meio" data-name="Rpsto meio" class="cls-7" d="M497.938,366l158.736,66L639.867,602,611.854,880l-69.1,64-76.566-38L387.756,624Z"/>
    <path id="Rosto_dir" data-name="Rosto dir" class="cls-7" d="M540.89,950l74.7-24c64.391-27.953,147.269-64.524,190.484-82,32.709-13.228,89.235-35.356,102.711-86,6.651-24.992,1.367-54.538-11.205-84A170.448,170.448,0,0,0,873.3,634c-26.191-32.875-63.3-60.791-100.844-82l70.964,18c-17.114-30.829-33.036-60.982-48.554-92-32.687-65.336-57.394-119.681-113.917-148-38.614-19.347-69.26-16.093-84.037-10-25.474,10.5-44.076,33.922-54.157,62Z"/>
    <path id="Rosto_esq" data-name="Rosto esq" class="cls-7" d="M539.022,948l-74.681-24.011c-64.376-27.965-147.234-64.552-190.439-82.036-32.7-13.234-89.214-35.371-102.687-86.038-6.649-25-1.366-54.563,11.2-84.037a170.559,170.559,0,0,1,24.272-40.018c26.184-32.889,63.282-60.818,100.82-82.036l-70.948,18.008c17.11-30.843,33.029-61.01,48.544-92.041,32.679-65.365,57.38-119.734,113.889-148.066,38.6-19.355,69.244-16.1,84.017-10,25.468,10.509,44.066,33.937,54.144,62.027Z"/>
    <path id="Forma_7" data-name="Forma 7" class="cls-7" d="M240.589,388.972c-6.87.6-12.206-6.4-19.452-14.474A73.778,73.778,0,0,1,209.3,356.406c-10.334-21.42-16.63-41.394-18.607-60.608a166.4,166.4,0,0,1,3.383-54.275l21.99-3.618a239.758,239.758,0,0,1,38.059,0c20.1,1.6,45.435,7.273,72.735,17.187a370.16,370.16,0,0,1,56.666,26.233l-6.766,3.618a318.721,318.721,0,0,0-70.2,44.325c-12.2,10.128-25.873,21.87-30.447,28.043-4.82,6.5-19.624,20.716-27.91,28.042A13.357,13.357,0,0,1,240.589,388.972Z"/>
    <path id="Forma_7_copiar" data-name="Forma 7 copiar" class="cls-7" d="M831.013,388.943c6.869,0.6,12.2-6.4,19.449-14.484A73.844,73.844,0,0,0,862.3,356.354c10.333-21.436,16.628-41.425,18.6-60.653a166.619,166.619,0,0,0-3.382-54.316l-21.987-3.621a239.577,239.577,0,0,0-38.054,0c-20.092,1.6-45.428,7.278-72.725,17.2A370,370,0,0,0,688.1,281.217l6.766,3.621A318.6,318.6,0,0,1,765.053,329.2c12.2,10.135,25.869,21.886,30.443,28.063,4.819,6.509,19.621,20.731,27.906,28.063A13.347,13.347,0,0,0,831.013,388.943Z"/>
    <path id="Forma_7_copiar_2" data-name="Forma 7 copiar 2" class="cls-8" d="M819.694,378.637c5.357,0.563,9.611-4.8,15.371-10.964a57.14,57.14,0,0,0,9.472-13.885c8.338-16.493,13.5-31.921,15.289-46.82a128.706,128.706,0,0,0-1.962-42.218l-17.125-3.128a188.27,188.27,0,0,0-29.718-.55c-15.712.951-35.57,4.994-57.011,12.3a289.1,289.1,0,0,0-44.577,19.563q2.62,1.453,5.238,2.909A249.861,249.861,0,0,1,768.93,331.3c9.4,8.045,19.929,17.365,23.423,22.227,3.682,5.124,15.064,16.379,21.442,22.191A10.478,10.478,0,0,0,819.694,378.637Z"/>
    <path id="Forma_7_copiar_3" data-name="Forma 7 copiar 3" class="cls-8" d="M252.047,378.981c-5.356.563-9.611-4.8-15.37-10.97a57.161,57.161,0,0,1-9.473-13.893c-8.338-16.5-13.5-31.937-15.289-46.844a128.838,128.838,0,0,1,1.962-42.24L231,261.9a188.283,188.283,0,0,1,29.719-.55c15.711,0.952,35.569,5,57.01,12.31a288.956,288.956,0,0,1,44.577,19.573l-5.238,2.91a249.877,249.877,0,0,0-54.259,35.471c-9.4,8.049-19.929,17.374-23.423,22.239-3.682,5.126-15.064,16.387-21.442,22.2A10.484,10.484,0,0,1,252.047,378.981Z"/>
    <path id="Boca" class="cls-9" d="M536.707,721.182s7.548-8.553,6.222,0,0,26.162,0,26.162a35.214,35.214,0,0,0,62.84,5.606h1.867l1.244,1.246v1.869a39.539,39.539,0,0,1-68.44-4.983H539.2c-7.007,14.184-21.088,23.073-36.087,23.047a40.127,40.127,0,0,1-31.731-16.2l-1.244-3.115,0.622-1.869,1.244-.623,1.245,0.623a36.473,36.473,0,0,0,29.864,16.819c21.518,0.287,31.962-17.337,33.574-22.339C539.923,735.768,529.889,686.513,536.707,721.182Z"/>
    <path id="Boca_copiar" data-name="Boca copiar" class="cls-9" d="M542.307,724.055s-7.548-8.553-6.222,0,0,26.162,0,26.162a35.214,35.214,0,0,1-62.84,5.606h-1.867l-1.244,1.246v1.869a39.539,39.539,0,0,0,68.44-4.984h1.244c7.007,14.185,21.088,23.073,36.087,23.048a40.125,40.125,0,0,0,31.731-16.2l1.244-3.114-0.622-1.869-1.244-.623-1.245.623a36.473,36.473,0,0,1-29.864,16.819c-21.518.287-31.962-17.337-33.574-22.339C539.091,738.64,549.125,689.386,542.307,724.055Z"/>
    <path id="Nariz" class="cls-10" d="M540.46,663c27.94,0,64.1,16.384,63.548,31.043s-49.852,37.079-62.452,37.941-63-23.282-63.548-36.216S512.521,663,540.46,663Z"/>
    <circle id="Olho_dir" data-name="Olho dir" class="cls-11" cx="656.5" cy="511.5" r="42.5"/>
    <circle id="brilho_dir" data-name="brilho dir" class="cls-12" cx="670.672" cy="497.344" r="17.703"/>
    <circle id="Olho_esq" data-name="Olho esq" class="cls-11" cx="414.5" cy="511.5" r="42.5"/>
    <path id="brilho_esq" data-name="brilho esq" class="cls-8" d="M426.016,479.634a17.707,17.707,0,1,1-17.709,17.707A17.709,17.709,0,0,1,426.016,479.634Z"/>
    <path id="Bochecha_esq" data-name="Bochecha esq" class="cls-8" d="M265.51,662.994c25.129,0,45.5,13.655,45.5,30.5s-20.372,30.5-45.5,30.5-45.5-13.655-45.5-30.5S240.38,662.994,265.51,662.994Z"/>
    <path id="Bochecha_dir" data-name="Bochecha dir" class="cls-8" d="M813.512,662.994c25.129,0,45.5,13.655,45.5,30.5s-20.372,30.5-45.5,30.5-45.5-13.655-45.5-30.5S788.383,662.994,813.512,662.994Z"/>
  </g>
</svg>
